<svg xmlns="http://www.w3.org/2000/svg" width="195" height="134" viewBox="0 0 195 134">
    <path fill="#DA251D" d="M93.984 36.357v5.82c3.705.42 6.862 1.438 9.471 3.052 3.527 2.181 6.144 5.217 7.853 9.107 1.638 3.728 2.49 8.04 2.559 12.938l.004.642v40.03l-.004.614c-.073 4.694-.98 8.87-2.722 12.528-1.818 3.818-4.509 6.8-8.072 8.944-3.563 2.145-7.962 3.218-13.197 3.218-5.309 0-9.744-1.073-13.307-3.218-3.563-2.145-6.254-5.108-8.072-8.889-1.742-3.624-2.65-7.815-2.722-12.574l-.004-.624v-40.03l.004-.641c.068-4.897.921-9.21 2.559-12.938 1.709-3.89 4.345-6.926 7.908-9.107 2.858-1.75 6.348-2.798 10.47-3.145v-5.727h7.272zm-49.81 0v61.88h8.18v13.526h-8.18v12.579h6.908v7.272H21.27v-7.272h5.89v-12.58H0V98.348l23.014-55.082h13.888v-6.908h7.272zm104.346 95.257v-7.272h6.689v-12.58h-27.158V98.348l23.014-55.082h6.706v-7.222h7.272l-.001 7.222h7.183v54.973l7.926-.001v-4.071h7.272v7.271h-7.018v7.271h7.018v7.272h-7.272v-4.218h-7.926v12.58h6.835v7.272h-30.54zM89.876 58.208c-1.818 0-3.109.6-3.872 1.8-.764 1.2-1.218 2.581-1.364 4.145-.127 1.368-.199 2.61-.215 3.728l-.003.471v39.157l.004.37c.022 1.01.13 2.177.323 3.502.218 1.49.71 2.8 1.473 3.927.763 1.127 1.981 1.69 3.654 1.69 1.745 0 3-.563 3.763-1.69.763-1.127 1.236-2.436 1.418-3.927.161-1.325.25-2.492.269-3.501l.003-.371V68.352l-.003-.471c-.016-1.118-.088-2.36-.215-3.728-.145-1.564-.6-2.945-1.363-4.145-.764-1.2-2.055-1.8-3.872-1.8zm104.818 43.23v7.27h-7.271v-7.27h7.271zM27.16 61.48L13.852 98.238H27.16V61.48zm128.05 0l-13.306 36.758h13.307V61.48zM36.904 29.086v7.271H29.63v-7.271h7.272zm14.543 0v7.271h-7.272v-7.271h7.272zm42.538-14.543v7.271h7.271v7.272h7.272v7.271H93.984v-7.271h-7.272v7.271H72.897v-7.271h7.271v-7.272h6.544v-7.271h7.272zm63.787 14.228v7.272H150.5v-7.272h7.271zm14.543 0v7.272h-7.271v-7.272h7.271zm-128.14-6.957v7.272h-7.271v-7.272h7.271zm71.624 0v7.272h-7.271v-7.272h7.271zm-42.901 0v7.272h-7.272v-7.272h7.272zm92.146-.314v7.271h-7.272V21.5h7.272zm-56.516-6.957v7.271h-7.272v-7.271h7.272zM86.712 7.271v7.272h-6.544v7.271h-7.271v-7.271h6.544V7.271h7.271zm14.543 0v7.272h-7.271V7.271h7.271zM93.984 0v7.271h-7.272V0h7.272z"/>
</svg>
