<svg xmlns="http://www.w3.org/2000/svg" width="9" height="9" viewBox="0 0 9 9">
    <path fill="#DA251D" fill-rule="evenodd" d="M3.44 5.56c.195.196.195.513 0 .708L1.317 8.389c-.195.195-.512.195-.707 0-.195-.195-.195-.512 0-.707l2.121-2.121c.195-.196.512-.196.707 0zm4.95 2.12c.196.196.196.513 0 .708-.195.195-.511.195-.707 0L5.562 6.266c-.195-.195-.195-.511 0-.707.195-.195.512-.195.707 0L8.39 7.681zM3.44 2.73c.196.196.196.513 0 .708-.195.195-.511.195-.706 0L.612 1.317C.417 1.12.417.805.612.61c.195-.196.512-.196.707 0l2.122 2.12zM8.39.61c.194.196.194.513 0 .708L6.267 3.439c-.195.196-.512.196-.707 0-.196-.195-.196-.512 0-.707L7.682.611c.195-.195.512-.195.707 0z"/>
</svg>
