<svg xmlns="http://www.w3.org/2000/svg" width="1440" height="13" viewBox="0 0 1440 13">
    <g fill="#1E1B15" fill-rule="evenodd">
        <g>
            <path d="M28.672 6.513L35.047 6.513 35.047 3.326 28.672 3.326zM31.86 3.326L35.047 3.326 35.047.138 31.86.138zM38.235 6.513L44.61 6.513 44.61 3.326 38.235 3.326zM35.047 9.701L38.235 9.701 38.235 6.513 35.047 6.513zM38.235 3.326L41.422 3.326 41.422.138 38.235.138zM47.797 6.513L54.172 6.513 54.172 3.326 47.797 3.326zM50.985 3.326L54.172 3.326 54.172.138 50.985.138zM57.36 6.513L63.735 6.513 63.735 3.326 57.36 3.326zM54.172 9.701L57.36 9.701 57.36 6.513 54.172 6.513zM57.36 3.326L60.547 3.326 60.547.138 57.36.138zM66.922 6.513L73.297 6.513 73.297 3.326 66.922 3.326zM70.11 3.326L73.297 3.326 73.297.138 70.11.138zM76.485 6.513L82.86 6.513 82.86 3.326 76.485 3.326zM73.297 9.701L76.485 9.701 76.485 6.513 73.297 6.513zM76.485 3.326L79.672 3.326 79.672.138 76.485.138zM86.047 6.513L92.422 6.513 92.422 3.326 86.047 3.326zM89.235 3.326L92.422 3.326 92.422.138 89.235.138zM95.61 6.513L101.985 6.513 101.985 3.326 95.61 3.326zM92.422 9.701L95.61 9.701 95.61 6.513 92.422 6.513zM95.61 3.326L98.797 3.326 98.797.138 95.61.138zM105.172 6.513L111.547 6.513 111.547 3.326 105.172 3.326zM108.36 3.326L111.547 3.326 111.547.138 108.36.138zM114.735 6.513L121.11 6.513 121.11 3.326 114.735 3.326zM111.547 9.701L114.735 9.701 114.735 6.513 111.547 6.513zM114.735 3.326L117.922 3.326 117.922.138 114.735.138zM124.297 6.513L130.672 6.513 130.672 3.326 124.297 3.326zM127.485 3.326L130.672 3.326 130.672.138 127.485.138zM133.86 6.513L140.235 6.513 140.235 3.326 133.86 3.326zM130.672 9.701L133.86 9.701 133.86 6.513 130.672 6.513zM133.86 3.326L137.047 3.326 137.047.138 133.86.138zM143.422 6.513L149.797 6.513 149.797 3.326 143.422 3.326zM146.61 3.326L149.797 3.326 149.797.138 146.61.138zM152.985 6.513L159.36 6.513 159.36 3.326 152.985 3.326zM149.797 9.701L152.985 9.701 152.985 6.513 149.797 6.513zM152.985 3.326L156.172 3.326 156.172.138 152.985.138zM162.547 6.513L168.922 6.513 168.922 3.326 162.547 3.326zM165.735 3.326L168.922 3.326 168.922.138 165.735.138zM172.11 6.513L178.485 6.513 178.485 3.326 172.11 3.326zM168.922 9.701L172.11 9.701 172.11 6.513 168.922 6.513zM172.11 3.326L175.297 3.326 175.297.138 172.11.138zM181.672 6.513L188.047 6.513 188.047 3.326 181.672 3.326zM184.86 3.326L188.047 3.326 188.047.138 184.86.138zM191.235 6.513L197.61 6.513 197.61 3.326 191.235 3.326zM188.047 9.701L191.235 9.701 191.235 6.513 188.047 6.513zM191.235 3.326L194.422 3.326 194.422.138 191.235.138zM200.797 6.513L207.172 6.513 207.172 3.326 200.797 3.326zM203.985 3.326L207.172 3.326 207.172.138 203.985.138zM210.36 6.513L216.735 6.513 216.735 3.326 210.36 3.326zM207.172 9.701L210.36 9.701 210.36 6.513 207.172 6.513zM210.36 3.326L213.547 3.326 213.547.138 210.36.138zM219.922 6.513L226.297 6.513 226.297 3.326 219.922 3.326zM223.11 3.326L226.297 3.326 226.297.138 223.11.138zM229.485 6.513L235.86 6.513 235.86 3.326 229.485 3.326zM226.297 9.701L229.485 9.701 229.485 6.513 226.297 6.513zM229.485 3.326L232.672 3.326 232.672.138 229.485.138zM239.047 6.513L245.422 6.513 245.422 3.326 239.047 3.326zM242.235 3.326L245.422 3.326 245.422.138 242.235.138zM248.61 6.513L254.985 6.513 254.985 3.326 248.61 3.326zM245.422 9.701L248.61 9.701 248.61 6.513 245.422 6.513zM248.61 3.326L251.797 3.326 251.797.138 248.61.138zM258.172 6.513L264.547 6.513 264.547 3.326 258.172 3.326zM261.36 3.326L264.547 3.326 264.547.138 261.36.138zM267.735 6.513L274.11 6.513 274.11 3.326 267.735 3.326zM264.547 9.701L267.735 9.701 267.735 6.513 264.547 6.513zM267.735 3.326L270.922 3.326 270.922.138 267.735.138zM277.297 6.513L283.672 6.513 283.672 3.326 277.297 3.326zM280.485 3.326L283.672 3.326 283.672.138 280.485.138zM286.86 6.513L293.235 6.513 293.235 3.326 286.86 3.326zM283.672 9.701L286.86 9.701 286.86 6.513 283.672 6.513zM286.86 3.326L290.047 3.326 290.047.138 286.86.138zM296.422 6.513L302.797 6.513 302.797 3.326 296.422 3.326zM299.61 3.326L302.797 3.326 302.797.138 299.61.138zM305.985 6.513L312.36 6.513 312.36 3.326 305.985 3.326zM302.797 9.701L305.985 9.701 305.985 6.513 302.797 6.513zM305.985 3.326L309.172 3.326 309.172.138 305.985.138zM315.547 6.513L321.922 6.513 321.922 3.326 315.547 3.326zM318.735 3.326L321.922 3.326 321.922.138 318.735.138zM325.11 6.513L331.485 6.513 331.485 3.326 325.11 3.326zM321.922 9.701L325.11 9.701 325.11 6.513 321.922 6.513zM325.11 3.326L328.297 3.326 328.297.138 325.11.138zM334.672 6.513L341.047 6.513 341.047 3.326 334.672 3.326zM337.86 3.326L341.047 3.326 341.047.138 337.86.138zM344.235 6.513L350.61 6.513 350.61 3.326 344.235 3.326zM341.047 9.701L344.235 9.701 344.235 6.513 341.047 6.513zM344.235 3.326L347.422 3.326 347.422.138 344.235.138zM353.797 6.513L360.172 6.513 360.172 3.326 353.797 3.326zM356.985 3.326L360.172 3.326 360.172.138 356.985.138zM363.36 6.513L369.735 6.513 369.735 3.326 363.36 3.326zM360.172 9.701L363.36 9.701 363.36 6.513 360.172 6.513zM363.36 3.326L366.547 3.326 366.547.138 363.36.138zM372.922 6.513L379.297 6.513 379.297 3.326 372.922 3.326zM376.11 3.326L379.297 3.326 379.297.138 376.11.138zM382.485 6.513L388.86 6.513 388.86 3.326 382.485 3.326zM379.297 9.701L382.485 9.701 382.485 6.513 379.297 6.513zM382.485 3.326L385.672 3.326 385.672.138 382.485.138zM392.047 6.513L398.422 6.513 398.422 3.326 392.047 3.326zM395.235 3.326L398.422 3.326 398.422.138 395.235.138zM401.61 6.513L407.985 6.513 407.985 3.326 401.61 3.326zM398.422 9.701L401.61 9.701 401.61 6.513 398.422 6.513zM401.61 3.326L404.797 3.326 404.797.138 401.61.138zM411.172 6.513L417.547 6.513 417.547 3.326 411.172 3.326zM414.36 3.326L417.547 3.326 417.547.138 414.36.138zM420.735 6.513L427.11 6.513 427.11 3.326 420.735 3.326zM417.547 9.701L420.735 9.701 420.735 6.513 417.547 6.513zM420.735 3.326L423.922 3.326 423.922.138 420.735.138zM430.297 6.513L436.672 6.513 436.672 3.326 430.297 3.326zM433.485 3.326L436.672 3.326 436.672.138 433.485.138zM439.86 6.513L446.235 6.513 446.235 3.326 439.86 3.326zM436.672 9.701L439.86 9.701 439.86 6.513 436.672 6.513zM439.86 3.326L443.047 3.326 443.047.138 439.86.138zM449.422 6.513L455.797 6.513 455.797 3.326 449.422 3.326zM452.61 3.326L455.797 3.326 455.797.138 452.61.138zM458.985 6.513L465.36 6.513 465.36 3.326 458.985 3.326zM455.797 9.701L458.985 9.701 458.985 6.513 455.797 6.513zM458.985 3.326L462.172 3.326 462.172.138 458.985.138zM468.547 6.513L474.922 6.513 474.922 3.326 468.547 3.326zM471.735 3.326L474.922 3.326 474.922.138 471.735.138zM478.11 6.513L484.485 6.513 484.485 3.326 478.11 3.326zM474.922 9.701L478.11 9.701 478.11 6.513 474.922 6.513zM478.11 3.326L481.297 3.326 481.297.138 478.11.138zM487.672 6.513L494.047 6.513 494.047 3.326 487.672 3.326zM490.86 3.326L494.047 3.326 494.047.138 490.86.138zM497.235 6.513L503.61 6.513 503.61 3.326 497.235 3.326zM494.047 9.701L497.235 9.701 497.235 6.513 494.047 6.513zM497.235 3.326L500.422 3.326 500.422.138 497.235.138zM506.797 6.513L509.985 6.513 509.985 3.326 506.797 3.326zM0 12.888L509.985 12.888 509.985 9.701 0 9.701z" transform="translate(-32 -1) translate(0 1)"/>
        </g>
        <g>
            <path d="M9.547 7.513L15.922 7.513 15.922 4.326 9.547 4.326zM12.735 4.326L15.922 4.326 15.922 1.138 12.735 1.138zM19.11 7.513L25.485 7.513 25.485 4.326 19.11 4.326zM15.922 10.701L19.11 10.701 19.11 7.513 15.922 7.513zM19.11 4.326L22.297 4.326 22.297 1.138 19.11 1.138zM28.672 7.513L35.047 7.513 35.047 4.326 28.672 4.326zM31.86 4.326L35.047 4.326 35.047 1.138 31.86 1.138zM38.235 7.513L44.61 7.513 44.61 4.326 38.235 4.326zM35.047 10.701L38.235 10.701 38.235 7.513 35.047 7.513zM38.235 4.326L41.422 4.326 41.422 1.138 38.235 1.138zM47.797 7.513L54.172 7.513 54.172 4.326 47.797 4.326zM50.985 4.326L54.172 4.326 54.172 1.138 50.985 1.138zM57.36 7.513L63.735 7.513 63.735 4.326 57.36 4.326zM54.172 10.701L57.36 10.701 57.36 7.513 54.172 7.513zM57.36 4.326L60.547 4.326 60.547 1.138 57.36 1.138zM66.922 7.513L73.297 7.513 73.297 4.326 66.922 4.326zM70.11 4.326L73.297 4.326 73.297 1.138 70.11 1.138zM76.485 7.513L82.86 7.513 82.86 4.326 76.485 4.326zM73.297 10.701L76.485 10.701 76.485 7.513 73.297 7.513zM76.485 4.326L79.672 4.326 79.672 1.138 76.485 1.138zM86.047 7.513L92.422 7.513 92.422 4.326 86.047 4.326zM89.235 4.326L92.422 4.326 92.422 1.138 89.235 1.138zM95.61 7.513L101.985 7.513 101.985 4.326 95.61 4.326zM92.422 10.701L95.61 10.701 95.61 7.513 92.422 7.513zM95.61 4.326L98.797 4.326 98.797 1.138 95.61 1.138zM105.172 7.513L111.547 7.513 111.547 4.326 105.172 4.326zM108.36 4.326L111.547 4.326 111.547 1.138 108.36 1.138zM114.735 7.513L121.11 7.513 121.11 4.326 114.735 4.326zM111.547 10.701L114.735 10.701 114.735 7.513 111.547 7.513zM114.735 4.326L117.922 4.326 117.922 1.138 114.735 1.138zM124.297 7.513L130.672 7.513 130.672 4.326 124.297 4.326zM127.485 4.326L130.672 4.326 130.672 1.138 127.485 1.138zM133.86 7.513L140.235 7.513 140.235 4.326 133.86 4.326zM130.672 10.701L133.86 10.701 133.86 7.513 130.672 7.513zM133.86 4.326L137.047 4.326 137.047 1.138 133.86 1.138zM143.422 7.513L149.797 7.513 149.797 4.326 143.422 4.326zM146.61 4.326L149.797 4.326 149.797 1.138 146.61 1.138zM152.985 7.513L159.36 7.513 159.36 4.326 152.985 4.326zM149.797 10.701L152.985 10.701 152.985 7.513 149.797 7.513zM152.985 4.326L156.172 4.326 156.172 1.138 152.985 1.138zM162.547 7.513L168.922 7.513 168.922 4.326 162.547 4.326zM165.735 4.326L168.922 4.326 168.922 1.138 165.735 1.138zM172.11 7.513L178.485 7.513 178.485 4.326 172.11 4.326zM168.922 10.701L172.11 10.701 172.11 7.513 168.922 7.513zM172.11 4.326L175.297 4.326 175.297 1.138 172.11 1.138zM181.672 7.513L188.047 7.513 188.047 4.326 181.672 4.326zM184.86 4.326L188.047 4.326 188.047 1.138 184.86 1.138zM191.235 7.513L197.61 7.513 197.61 4.326 191.235 4.326zM188.047 10.701L191.235 10.701 191.235 7.513 188.047 7.513zM191.235 4.326L194.422 4.326 194.422 1.138 191.235 1.138zM200.797 7.513L207.172 7.513 207.172 4.326 200.797 4.326zM203.985 4.326L207.172 4.326 207.172 1.138 203.985 1.138zM210.36 7.513L216.735 7.513 216.735 4.326 210.36 4.326zM207.172 10.701L210.36 10.701 210.36 7.513 207.172 7.513zM210.36 4.326L213.547 4.326 213.547 1.138 210.36 1.138zM219.922 7.513L226.297 7.513 226.297 4.326 219.922 4.326zM223.11 4.326L226.297 4.326 226.297 1.138 223.11 1.138zM229.485 7.513L235.86 7.513 235.86 4.326 229.485 4.326zM226.297 10.701L229.485 10.701 229.485 7.513 226.297 7.513zM229.485 4.326L232.672 4.326 232.672 1.138 229.485 1.138zM239.047 7.513L245.422 7.513 245.422 4.326 239.047 4.326zM242.235 4.326L245.422 4.326 245.422 1.138 242.235 1.138zM248.61 7.513L254.985 7.513 254.985 4.326 248.61 4.326zM245.422 10.701L248.61 10.701 248.61 7.513 245.422 7.513zM248.61 4.326L251.797 4.326 251.797 1.138 248.61 1.138zM258.172 7.513L264.547 7.513 264.547 4.326 258.172 4.326zM261.36 4.326L264.547 4.326 264.547 1.138 261.36 1.138zM267.735 7.513L274.11 7.513 274.11 4.326 267.735 4.326zM264.547 10.701L267.735 10.701 267.735 7.513 264.547 7.513zM267.735 4.326L270.922 4.326 270.922 1.138 267.735 1.138zM277.297 7.513L283.672 7.513 283.672 4.326 277.297 4.326zM280.485 4.326L283.672 4.326 283.672 1.138 280.485 1.138zM286.86 7.513L293.235 7.513 293.235 4.326 286.86 4.326zM283.672 10.701L286.86 10.701 286.86 7.513 283.672 7.513zM286.86 4.326L290.047 4.326 290.047 1.138 286.86 1.138zM296.422 7.513L302.797 7.513 302.797 4.326 296.422 4.326zM299.61 4.326L302.797 4.326 302.797 1.138 299.61 1.138zM305.985 7.513L312.36 7.513 312.36 4.326 305.985 4.326zM302.797 10.701L305.985 10.701 305.985 7.513 302.797 7.513zM305.985 4.326L309.172 4.326 309.172 1.138 305.985 1.138zM315.547 7.513L321.922 7.513 321.922 4.326 315.547 4.326zM318.735 4.326L321.922 4.326 321.922 1.138 318.735 1.138zM325.11 7.513L331.485 7.513 331.485 4.326 325.11 4.326zM321.922 10.701L325.11 10.701 325.11 7.513 321.922 7.513zM325.11 4.326L328.297 4.326 328.297 1.138 325.11 1.138zM334.672 7.513L341.047 7.513 341.047 4.326 334.672 4.326zM337.86 4.326L341.047 4.326 341.047 1.138 337.86 1.138zM344.235 7.513L350.61 7.513 350.61 4.326 344.235 4.326zM341.047 10.701L344.235 10.701 344.235 7.513 341.047 7.513zM344.235 4.326L347.422 4.326 347.422 1.138 344.235 1.138zM353.797 7.513L360.172 7.513 360.172 4.326 353.797 4.326zM356.985 4.326L360.172 4.326 360.172 1.138 356.985 1.138zM363.36 7.513L369.735 7.513 369.735 4.326 363.36 4.326zM360.172 10.701L363.36 10.701 363.36 7.513 360.172 7.513zM363.36 4.326L366.547 4.326 366.547 1.138 363.36 1.138zM372.922 7.513L379.297 7.513 379.297 4.326 372.922 4.326zM376.11 4.326L379.297 4.326 379.297 1.138 376.11 1.138zM382.485 7.513L388.86 7.513 388.86 4.326 382.485 4.326zM379.297 10.701L382.485 10.701 382.485 7.513 379.297 7.513zM382.485 4.326L385.672 4.326 385.672 1.138 382.485 1.138zM392.047 7.513L398.422 7.513 398.422 4.326 392.047 4.326zM395.235 4.326L398.422 4.326 398.422 1.138 395.235 1.138zM401.61 7.513L407.985 7.513 407.985 4.326 401.61 4.326zM398.422 10.701L401.61 10.701 401.61 7.513 398.422 7.513zM401.61 4.326L404.797 4.326 404.797 1.138 401.61 1.138zM411.172 7.513L417.547 7.513 417.547 4.326 411.172 4.326zM414.36 4.326L417.547 4.326 417.547 1.138 414.36 1.138zM420.735 7.513L427.11 7.513 427.11 4.326 420.735 4.326zM417.547 10.701L420.735 10.701 420.735 7.513 417.547 7.513zM420.735 4.326L423.922 4.326 423.922 1.138 420.735 1.138zM430.297 7.513L436.672 7.513 436.672 4.326 430.297 4.326zM433.485 4.326L436.672 4.326 436.672 1.138 433.485 1.138zM439.86 7.513L446.235 7.513 446.235 4.326 439.86 4.326zM436.672 10.701L439.86 10.701 439.86 7.513 436.672 7.513zM439.86 4.326L443.047 4.326 443.047 1.138 439.86 1.138zM449.422 7.513L455.797 7.513 455.797 4.326 449.422 4.326zM452.61 4.326L455.797 4.326 455.797 1.138 452.61 1.138zM458.985 7.513L465.36 7.513 465.36 4.326 458.985 4.326zM455.797 10.701L458.985 10.701 458.985 7.513 455.797 7.513zM458.985 4.326L462.172 4.326 462.172 1.138 458.985 1.138zM468.547 7.513L474.922 7.513 474.922 4.326 468.547 4.326zM471.735 4.326L474.922 4.326 474.922 1.138 471.735 1.138zM478.11 7.513L484.485 7.513 484.485 4.326 478.11 4.326zM474.922 10.701L478.11 10.701 478.11 7.513 474.922 7.513zM478.11 4.326L481.297 4.326 481.297 1.138 478.11 1.138zM487.672 7.513L494.047 7.513 494.047 4.326 487.672 4.326zM490.86 4.326L494.047 4.326 494.047 1.138 490.86 1.138zM497.235 7.513L503.61 7.513 503.61 4.326 497.235 4.326zM494.047 10.701L497.235 10.701 497.235 7.513 494.047 7.513zM497.235 4.326L500.422 4.326 500.422 1.138 497.235 1.138zM506.797 7.513L509.985 7.513 509.985 4.326 506.797 4.326zM0 7.513L6.36 7.513 6.36 4.326 0 4.326zM0 4.326L3.172 4.326 3.172 1.138 0 1.138zM0 13.888L509.985 13.888 509.985 10.701 0 10.701z" transform="translate(-32 -1) translate(497)"/>
        </g>
        <g>
            <path d="M9.547 7.513L15.922 7.513 15.922 4.326 9.547 4.326zM12.735 4.326L15.922 4.326 15.922 1.138 12.735 1.138zM19.11 7.513L25.485 7.513 25.485 4.326 19.11 4.326zM15.922 10.701L19.11 10.701 19.11 7.513 15.922 7.513zM19.11 4.326L22.297 4.326 22.297 1.138 19.11 1.138zM28.672 7.513L35.047 7.513 35.047 4.326 28.672 4.326zM31.86 4.326L35.047 4.326 35.047 1.138 31.86 1.138zM38.235 7.513L44.61 7.513 44.61 4.326 38.235 4.326zM35.047 10.701L38.235 10.701 38.235 7.513 35.047 7.513zM38.235 4.326L41.422 4.326 41.422 1.138 38.235 1.138zM47.797 7.513L54.172 7.513 54.172 4.326 47.797 4.326zM50.985 4.326L54.172 4.326 54.172 1.138 50.985 1.138zM57.36 7.513L63.735 7.513 63.735 4.326 57.36 4.326zM54.172 10.701L57.36 10.701 57.36 7.513 54.172 7.513zM57.36 4.326L60.547 4.326 60.547 1.138 57.36 1.138zM66.922 7.513L73.297 7.513 73.297 4.326 66.922 4.326zM70.11 4.326L73.297 4.326 73.297 1.138 70.11 1.138zM76.485 7.513L82.86 7.513 82.86 4.326 76.485 4.326zM73.297 10.701L76.485 10.701 76.485 7.513 73.297 7.513zM76.485 4.326L79.672 4.326 79.672 1.138 76.485 1.138zM86.047 7.513L92.422 7.513 92.422 4.326 86.047 4.326zM89.235 4.326L92.422 4.326 92.422 1.138 89.235 1.138zM95.61 7.513L101.985 7.513 101.985 4.326 95.61 4.326zM92.422 10.701L95.61 10.701 95.61 7.513 92.422 7.513zM95.61 4.326L98.797 4.326 98.797 1.138 95.61 1.138zM105.172 7.513L111.547 7.513 111.547 4.326 105.172 4.326zM108.36 4.326L111.547 4.326 111.547 1.138 108.36 1.138zM114.735 7.513L121.11 7.513 121.11 4.326 114.735 4.326zM111.547 10.701L114.735 10.701 114.735 7.513 111.547 7.513zM114.735 4.326L117.922 4.326 117.922 1.138 114.735 1.138zM124.297 7.513L130.672 7.513 130.672 4.326 124.297 4.326zM127.485 4.326L130.672 4.326 130.672 1.138 127.485 1.138zM133.86 7.513L140.235 7.513 140.235 4.326 133.86 4.326zM130.672 10.701L133.86 10.701 133.86 7.513 130.672 7.513zM133.86 4.326L137.047 4.326 137.047 1.138 133.86 1.138zM143.422 7.513L149.797 7.513 149.797 4.326 143.422 4.326zM146.61 4.326L149.797 4.326 149.797 1.138 146.61 1.138zM152.985 7.513L159.36 7.513 159.36 4.326 152.985 4.326zM149.797 10.701L152.985 10.701 152.985 7.513 149.797 7.513zM152.985 4.326L156.172 4.326 156.172 1.138 152.985 1.138zM162.547 7.513L168.922 7.513 168.922 4.326 162.547 4.326zM165.735 4.326L168.922 4.326 168.922 1.138 165.735 1.138zM172.11 7.513L178.485 7.513 178.485 4.326 172.11 4.326zM168.922 10.701L172.11 10.701 172.11 7.513 168.922 7.513zM172.11 4.326L175.297 4.326 175.297 1.138 172.11 1.138zM181.672 7.513L188.047 7.513 188.047 4.326 181.672 4.326zM184.86 4.326L188.047 4.326 188.047 1.138 184.86 1.138zM191.235 7.513L197.61 7.513 197.61 4.326 191.235 4.326zM188.047 10.701L191.235 10.701 191.235 7.513 188.047 7.513zM191.235 4.326L194.422 4.326 194.422 1.138 191.235 1.138zM200.797 7.513L207.172 7.513 207.172 4.326 200.797 4.326zM203.985 4.326L207.172 4.326 207.172 1.138 203.985 1.138zM210.36 7.513L216.735 7.513 216.735 4.326 210.36 4.326zM207.172 10.701L210.36 10.701 210.36 7.513 207.172 7.513zM210.36 4.326L213.547 4.326 213.547 1.138 210.36 1.138zM219.922 7.513L226.297 7.513 226.297 4.326 219.922 4.326zM223.11 4.326L226.297 4.326 226.297 1.138 223.11 1.138zM229.485 7.513L235.86 7.513 235.86 4.326 229.485 4.326zM226.297 10.701L229.485 10.701 229.485 7.513 226.297 7.513zM229.485 4.326L232.672 4.326 232.672 1.138 229.485 1.138zM239.047 7.513L245.422 7.513 245.422 4.326 239.047 4.326zM242.235 4.326L245.422 4.326 245.422 1.138 242.235 1.138zM248.61 7.513L254.985 7.513 254.985 4.326 248.61 4.326zM245.422 10.701L248.61 10.701 248.61 7.513 245.422 7.513zM248.61 4.326L251.797 4.326 251.797 1.138 248.61 1.138zM258.172 7.513L264.547 7.513 264.547 4.326 258.172 4.326zM261.36 4.326L264.547 4.326 264.547 1.138 261.36 1.138zM267.735 7.513L274.11 7.513 274.11 4.326 267.735 4.326zM264.547 10.701L267.735 10.701 267.735 7.513 264.547 7.513zM267.735 4.326L270.922 4.326 270.922 1.138 267.735 1.138zM277.297 7.513L283.672 7.513 283.672 4.326 277.297 4.326zM280.485 4.326L283.672 4.326 283.672 1.138 280.485 1.138zM286.86 7.513L293.235 7.513 293.235 4.326 286.86 4.326zM283.672 10.701L286.86 10.701 286.86 7.513 283.672 7.513zM286.86 4.326L290.047 4.326 290.047 1.138 286.86 1.138zM296.422 7.513L302.797 7.513 302.797 4.326 296.422 4.326zM299.61 4.326L302.797 4.326 302.797 1.138 299.61 1.138zM305.985 7.513L312.36 7.513 312.36 4.326 305.985 4.326zM302.797 10.701L305.985 10.701 305.985 7.513 302.797 7.513zM305.985 4.326L309.172 4.326 309.172 1.138 305.985 1.138zM315.547 7.513L321.922 7.513 321.922 4.326 315.547 4.326zM318.735 4.326L321.922 4.326 321.922 1.138 318.735 1.138zM325.11 7.513L331.485 7.513 331.485 4.326 325.11 4.326zM321.922 10.701L325.11 10.701 325.11 7.513 321.922 7.513zM325.11 4.326L328.297 4.326 328.297 1.138 325.11 1.138zM334.672 7.513L341.047 7.513 341.047 4.326 334.672 4.326zM337.86 4.326L341.047 4.326 341.047 1.138 337.86 1.138zM344.235 7.513L350.61 7.513 350.61 4.326 344.235 4.326zM341.047 10.701L344.235 10.701 344.235 7.513 341.047 7.513zM344.235 4.326L347.422 4.326 347.422 1.138 344.235 1.138zM353.797 7.513L360.172 7.513 360.172 4.326 353.797 4.326zM356.985 4.326L360.172 4.326 360.172 1.138 356.985 1.138zM363.36 7.513L369.735 7.513 369.735 4.326 363.36 4.326zM360.172 10.701L363.36 10.701 363.36 7.513 360.172 7.513zM363.36 4.326L366.547 4.326 366.547 1.138 363.36 1.138zM372.922 7.513L379.297 7.513 379.297 4.326 372.922 4.326zM376.11 4.326L379.297 4.326 379.297 1.138 376.11 1.138zM382.485 7.513L388.86 7.513 388.86 4.326 382.485 4.326zM379.297 10.701L382.485 10.701 382.485 7.513 379.297 7.513zM382.485 4.326L385.672 4.326 385.672 1.138 382.485 1.138zM392.047 7.513L398.422 7.513 398.422 4.326 392.047 4.326zM395.235 4.326L398.422 4.326 398.422 1.138 395.235 1.138zM401.61 7.513L407.985 7.513 407.985 4.326 401.61 4.326zM398.422 10.701L401.61 10.701 401.61 7.513 398.422 7.513zM401.61 4.326L404.797 4.326 404.797 1.138 401.61 1.138zM411.172 7.513L417.547 7.513 417.547 4.326 411.172 4.326zM414.36 4.326L417.547 4.326 417.547 1.138 414.36 1.138zM420.735 7.513L427.11 7.513 427.11 4.326 420.735 4.326zM417.547 10.701L420.735 10.701 420.735 7.513 417.547 7.513zM420.735 4.326L423.922 4.326 423.922 1.138 420.735 1.138zM430.297 7.513L436.672 7.513 436.672 4.326 430.297 4.326zM433.485 4.326L436.672 4.326 436.672 1.138 433.485 1.138zM439.86 7.513L446.235 7.513 446.235 4.326 439.86 4.326zM436.672 10.701L439.86 10.701 439.86 7.513 436.672 7.513zM439.86 4.326L443.047 4.326 443.047 1.138 439.86 1.138zM449.422 7.513L455.797 7.513 455.797 4.326 449.422 4.326zM452.61 4.326L455.797 4.326 455.797 1.138 452.61 1.138zM458.985 7.513L465.36 7.513 465.36 4.326 458.985 4.326zM455.797 10.701L458.985 10.701 458.985 7.513 455.797 7.513zM458.985 4.326L462.172 4.326 462.172 1.138 458.985 1.138zM468.547 7.513L474.922 7.513 474.922 4.326 468.547 4.326zM471.735 4.326L474.922 4.326 474.922 1.138 471.735 1.138zM474.922 10.701L478.11 10.701 478.11 7.513 474.922 7.513zM0 7.513L6.36 7.513 6.36 4.326 0 4.326zM0 4.326L3.172 4.326 3.172 1.138 0 1.138zM0 13.888L509.985 13.888 509.985 10.701 0 10.701z" transform="translate(-32 -1) translate(994)"/>
        </g>
    </g>
</svg>
