<svg xmlns="http://www.w3.org/2000/svg" width="500" height="74" viewBox="0 0 500 74">
    <g fill="none" fill-rule="evenodd">
        <path fill="#E9E9E9" d="M234.334 67.492L244.959 67.492 244.959 62.492 234.334 62.492zM229.334 62.492L244.959 62.492 244.959 57.493 229.334 57.493zM229.334 57.493L239.334 57.493 239.334 51.869 229.334 51.869zM218.712 62.492L223.71 62.492 223.71 51.869 218.712 51.869zM223.71 57.493L229.334 57.493 229.334 51.869 223.71 51.869zM223.71 51.869L234.334 51.869 234.334 46.869 223.71 46.869zM239.334 57.493L244.959 57.493 244.959 46.869 239.334 46.869zM244.959 51.869L249.957 51.869 249.957 46.869 244.959 46.869zM234.334 46.869L249.957 46.869 249.957 41.87 234.334 41.87zM234.334 41.87L244.959 41.87 244.959 36.245 234.334 36.245zM234.334 36.245L244.959 36.245 244.959 31.246 234.334 31.246zM229.334 41.87L234.334 41.87 234.334 36.245 229.334 36.245zM244.959 41.87L249.957 41.87 249.957 36.245 244.959 36.245zM244.959 31.246L249.957 31.246 249.957 20.622 244.959 20.622zM0 41.87L4.988 41.87 4.988 31.246 0 31.246zM10.612 67.492L20.611 67.492 20.611 62.492 10.612 62.492zM10.612 62.492L26.235 62.492 26.235 57.493 10.612 57.493zM15.612 57.493L26.235 57.493 26.235 51.869 15.612 51.869zM31.235 62.492L36.234 62.492 36.234 51.869 31.235 51.869zM26.235 57.493L31.235 57.493 31.235 51.869 26.235 51.869zM20.611 51.869L31.235 51.869 31.235 46.869 20.611 46.869zM10.612 57.493L15.612 57.493 15.612 46.869 10.612 46.869zM4.988 51.869L10.612 51.869 10.612 46.869 4.988 46.869zM4.988 46.869L20.611 46.869 20.611 41.87 4.988 41.87zM10.612 41.87L20.611 41.87 20.611 36.245 10.612 36.245zM10.612 36.245L20.611 36.245 20.611 31.246 10.612 31.246zM20.611 41.87L26.235 41.87 26.235 36.245 20.611 36.245zM4.988 41.87L10.612 41.87 10.612 36.245 4.988 36.245zM0 31.246L4.988 31.246 4.988 15.623 0 15.623zM57.482 62.492L67.48 62.492 67.48 57.493 57.482 57.493zM62.481 67.492L67.48 67.492 67.48 62.492 62.481 62.492zM67.48 62.492L73.105 62.492 73.105 57.493 67.48 57.493zM57.482 57.493L67.48 57.493 67.48 51.869 57.482 51.869zM57.482 51.869L62.481 51.869 62.481 46.869 57.482 46.869zM51.857 57.493L57.482 57.493 57.482 46.869 51.857 46.869zM67.48 57.493L73.105 57.493 73.105 46.869 67.48 46.869zM73.105 57.493L78.104 57.493 78.104 46.869 73.105 46.869zM57.482 46.869L62.481 46.869 62.481 41.87 57.482 41.87zM62.481 46.869L73.105 46.869 73.105 41.87 62.481 41.87zM62.481 41.87L67.48 41.87 67.48 36.245 62.481 36.245zM57.482 10.624L67.48 10.624 67.48 4.999 57.482 4.999zM62.481 4.999L67.48 4.999 67.48 0 62.481 0zM67.48 10.624L73.105 10.624 73.105 4.999 67.48 4.999zM57.482 15.623L67.48 15.623 67.48 10.624 57.482 10.624zM57.482 20.622L62.481 20.622 62.481 15.623 57.482 15.623zM51.857 20.622L57.482 20.622 57.482 10.624 51.857 10.624zM67.48 20.622L73.105 20.622 73.105 10.624 67.48 10.624zM73.105 20.622L78.104 20.622 78.104 10.624 73.105 10.624zM57.482 26.247L62.481 26.247 62.481 20.622 57.482 20.622zM62.481 26.247L73.105 26.247 73.105 20.622 62.481 20.622zM62.481 31.246L67.48 31.246 67.48 26.247 62.481 26.247zM88.728 41.87L93.727 41.87 93.727 31.246 88.728 31.246zM93.727 36.245L98.726 36.245 98.726 31.246 93.727 31.246zM88.728 31.246L93.727 31.246 93.727 26.247 88.728 26.247zM83.103 41.87L88.728 41.87 88.728 31.246 83.103 31.246zM78.104 41.87L83.103 41.87 83.103 36.245 78.104 36.245zM78.104 46.869L88.728 46.869 88.728 41.87 78.104 41.87zM78.104 31.246L88.728 31.246 88.728 20.622 78.104 20.622zM73.105 41.87L78.104 41.87 78.104 26.247 73.105 26.247zM67.48 36.245L73.105 36.245 73.105 31.246 67.48 31.246zM36.234 41.87L41.858 41.87 41.858 31.246 36.234 31.246zM31.235 36.245L36.234 36.245 36.234 31.246 31.235 31.246zM36.234 31.246L41.858 31.246 41.858 26.247 36.234 26.247zM41.858 41.87L46.858 41.87 46.858 31.246 41.858 31.246zM46.858 41.87L51.857 41.87 51.857 36.245 46.858 36.245zM41.858 46.869L51.857 46.869 51.857 41.87 41.858 41.87zM41.858 31.246L51.857 31.246 51.857 20.622 41.858 20.622zM51.857 41.87L57.482 41.87 57.482 26.247 51.857 26.247zM57.482 36.245L62.481 36.245 62.481 31.246 57.482 31.246zM182.466 62.492L192.465 62.492 192.465 57.493 182.466 57.493zM187.465 67.492L192.465 67.492 192.465 62.492 187.465 62.492zM192.465 62.492L198.09 62.492 198.09 57.493 192.465 57.493zM182.466 57.493L192.465 57.493 192.465 51.869 182.466 51.869zM182.466 51.869L187.465 51.869 187.465 46.869 182.466 46.869zM176.842 57.493L182.466 57.493 182.466 46.869 176.842 46.869zM192.465 57.493L203.088 57.493 203.088 46.869 192.465 46.869zM182.466 46.869L198.09 46.869 198.09 41.87 182.466 41.87zM187.465 41.87L192.465 41.87 192.465 36.245 187.465 36.245zM182.466 10.624L192.465 10.624 192.465 4.999 182.466 4.999zM187.465 4.999L192.465 4.999 192.465 0 187.465 0zM192.465 10.624L198.09 10.624 198.09 4.999 192.465 4.999zM182.466 15.623L192.465 15.623 192.465 10.624 182.466 10.624zM182.466 20.622L187.465 20.622 187.465 15.623 182.466 15.623zM176.842 20.622L182.466 20.622 182.466 10.624 176.842 10.624zM192.465 20.622L203.088 20.622 203.088 10.624 192.465 10.624zM182.466 26.247L198.09 26.247 198.09 20.622 182.466 20.622zM187.465 31.246L192.465 31.246 192.465 26.247 187.465 26.247zM213.712 41.87L218.712 41.87 218.712 31.246 213.712 31.246zM218.712 36.245L223.71 36.245 223.71 31.246 218.712 31.246zM213.712 31.246L218.712 31.246 218.712 26.247 213.712 26.247zM208.088 41.87L213.712 41.87 213.712 31.246 208.088 31.246zM203.088 41.87L208.088 41.87 208.088 36.245 203.088 36.245zM203.088 46.869L213.712 46.869 213.712 41.87 203.088 41.87zM203.088 31.246L213.712 31.246 213.712 20.622 203.088 20.622zM198.09 41.87L203.088 41.87 203.088 26.247 198.09 26.247zM192.465 36.245L198.09 36.245 198.09 31.246 192.465 31.246zM161.219 41.87L166.843 41.87 166.843 31.246 161.219 31.246zM156.219 36.245L161.219 36.245 161.219 31.246 156.219 31.246zM161.219 31.246L166.843 31.246 166.843 26.247 161.219 26.247zM166.843 41.87L171.842 41.87 171.842 31.246 166.843 31.246zM171.842 41.87L176.842 41.87 176.842 36.245 171.842 36.245zM166.843 46.869L176.842 46.869 176.842 41.87 166.843 41.87zM166.843 31.246L176.842 31.246 176.842 20.622 166.843 20.622zM176.842 41.87L182.466 41.87 182.466 26.247 176.842 26.247zM182.466 36.245L187.465 36.245 187.465 31.246 182.466 31.246zM4.988 31.246L10.612 31.246 10.612 20.622 4.988 20.622zM109.35 67.492L119.974 67.492 119.974 62.492 109.35 62.492zM104.351 62.492L119.974 62.492 119.974 57.493 104.351 57.493zM104.351 57.493L114.349 57.493 114.349 51.869 104.351 51.869zM93.727 62.492L98.726 62.492 98.726 51.869 93.727 51.869zM98.726 57.493L104.351 57.493 104.351 51.869 98.726 51.869zM98.726 51.869L109.35 51.869 109.35 46.869 98.726 46.869zM114.349 57.493L119.974 57.493 119.974 46.869 114.349 46.869zM119.974 51.869L124.973 51.869 124.973 46.869 119.974 46.869zM109.35 46.869L124.973 46.869 124.973 41.87 109.35 41.87zM109.35 41.87L119.974 41.87 119.974 31.246 109.35 31.246zM104.351 41.87L109.35 41.87 109.35 36.245 104.351 36.245zM119.974 41.87L129.972 41.87 129.972 36.245 119.974 36.245zM124.973 36.245L129.972 36.245 129.972 31.246 124.973 31.246zM135.597 67.492L145.596 67.492 145.596 62.492 135.597 62.492zM135.597 62.492L151.22 62.492 151.22 57.493 135.597 57.493zM140.596 57.493L151.22 57.493 151.22 51.869 140.596 51.869zM156.219 62.492L161.219 62.492 161.219 51.869 156.219 51.869zM151.22 57.493L156.219 57.493 156.219 51.869 151.22 51.869zM145.596 51.869L156.219 51.869 156.219 46.869 145.596 46.869zM135.597 57.493L140.596 57.493 140.596 46.869 135.597 46.869zM129.972 51.869L135.597 51.869 135.597 46.869 129.972 46.869zM129.972 46.869L145.596 46.869 145.596 41.87 129.972 41.87zM135.597 41.87L145.596 41.87 145.596 31.246 135.597 31.246zM145.596 41.87L151.22 41.87 151.22 36.245 145.596 36.245zM129.972 41.87L135.597 41.87 135.597 36.245 129.972 36.245zM124.973 31.246L129.972 31.246 129.972 15.623 124.973 15.623zM119.974 26.247L124.973 26.247 124.973 20.622 119.974 20.622zM129.972 31.246L135.597 31.246 135.597 20.622 129.972 20.622zM119.974 31.246L124.973 31.246 124.973 26.247 119.974 26.247zM484.303 67.492L494.927 67.492 494.927 62.492 484.303 62.492zM479.304 62.492L494.927 62.492 494.927 57.493 479.304 57.493zM479.304 57.493L489.303 57.493 489.303 51.869 479.304 51.869zM468.68 62.492L473.68 62.492 473.68 51.869 468.68 51.869zM473.68 57.493L479.304 57.493 479.304 51.869 473.68 51.869zM473.68 51.869L484.303 51.869 484.303 46.869 473.68 46.869zM489.303 57.493L494.927 57.493 494.927 46.869 489.303 46.869zM494.927 51.869L499.927 51.869 499.927 46.869 494.927 46.869zM484.303 46.869L499.927 46.869 499.927 41.87 484.303 41.87zM484.303 41.87L494.927 41.87 494.927 31.246 484.303 31.246zM479.304 41.87L484.303 41.87 484.303 36.245 479.304 36.245zM494.927 41.87L499.927 41.87 499.927 36.245 494.927 36.245zM494.927 31.246L499.927 31.246 499.927 20.622 494.927 20.622zM249.957 41.87L254.957 41.87 254.957 31.246 249.957 31.246zM260.581 67.492L270.579 67.492 270.579 62.492 260.581 62.492zM260.581 62.492L276.204 62.492 276.204 57.493 260.581 57.493zM265.581 57.493L276.204 57.493 276.204 51.869 265.581 51.869zM281.204 62.492L286.204 62.492 286.204 51.869 281.204 51.869zM276.204 57.493L281.204 57.493 281.204 51.869 276.204 51.869zM270.579 51.869L281.204 51.869 281.204 46.869 270.579 46.869zM260.581 57.493L265.581 57.493 265.581 46.869 260.581 46.869zM254.957 51.869L260.581 51.869 260.581 46.869 254.957 46.869zM254.957 46.869L270.579 46.869 270.579 41.87 254.957 41.87zM260.581 41.87L270.579 41.87 270.579 31.246 260.581 31.246zM270.579 41.87L276.204 41.87 276.204 36.245 270.579 36.245zM254.957 41.87L260.581 41.87 260.581 36.245 254.957 36.245zM249.957 31.246L254.957 31.246 254.957 15.623 249.957 15.623zM307.45 62.492L317.448 62.492 317.448 57.493 307.45 57.493zM312.45 67.492L317.448 67.492 317.448 62.492 312.45 62.492zM317.448 62.492L323.073 62.492 323.073 57.493 317.448 57.493zM307.45 57.493L317.448 57.493 317.448 51.869 307.45 51.869zM307.45 51.869L312.45 51.869 312.45 46.869 307.45 46.869zM301.826 57.493L307.45 57.493 307.45 46.869 301.826 46.869zM317.448 57.493L323.073 57.493 323.073 46.869 317.448 46.869zM323.073 57.493L328.073 57.493 328.073 46.869 323.073 46.869zM307.45 46.869L312.45 46.869 312.45 41.87 307.45 41.87zM312.45 46.869L323.073 46.869 323.073 41.87 312.45 41.87zM312.45 41.87L317.448 41.87 317.448 36.245 312.45 36.245zM307.45 10.624L317.448 10.624 317.448 4.999 307.45 4.999zM312.45 4.999L317.448 4.999 317.448 0 312.45 0zM317.448 10.624L323.073 10.624 323.073 4.999 317.448 4.999zM307.45 15.623L317.448 15.623 317.448 10.624 307.45 10.624zM307.45 20.622L312.45 20.622 312.45 15.623 307.45 15.623zM301.826 20.622L307.45 20.622 307.45 10.624 301.826 10.624zM317.448 20.622L328.073 20.622 328.073 10.624 317.448 10.624zM307.45 26.247L323.073 26.247 323.073 20.622 307.45 20.622zM312.45 31.246L317.448 31.246 317.448 26.247 312.45 26.247zM338.697 41.87L343.695 41.87 343.695 31.246 338.697 31.246zM343.695 36.245L348.695 36.245 348.695 31.246 343.695 31.246zM338.697 31.246L343.695 31.246 343.695 26.247 338.697 26.247zM333.073 41.87L338.697 41.87 338.697 31.246 333.073 31.246zM328.073 41.87L333.073 41.87 333.073 36.245 328.073 36.245zM328.073 46.869L338.697 46.869 338.697 41.87 328.073 41.87zM328.073 31.246L338.697 31.246 338.697 20.622 328.073 20.622zM323.073 41.87L328.073 41.87 328.073 26.247 323.073 26.247zM317.448 36.245L323.073 36.245 323.073 31.246 317.448 31.246zM286.204 41.87L291.828 41.87 291.828 31.246 286.204 31.246zM281.204 36.245L286.204 36.245 286.204 31.246 281.204 31.246zM286.204 31.246L291.828 31.246 291.828 26.247 286.204 26.247zM291.828 41.87L296.826 41.87 296.826 31.246 291.828 31.246zM296.826 41.87L301.826 41.87 301.826 36.245 296.826 36.245zM291.828 46.869L301.826 46.869 301.826 41.87 291.828 41.87zM291.828 31.246L301.826 31.246 301.826 20.622 291.828 20.622zM301.826 41.87L307.45 41.87 307.45 26.247 301.826 26.247zM307.45 36.245L312.45 36.245 312.45 31.246 307.45 31.246zM432.435 62.492L442.433 62.492 442.433 57.493 432.435 57.493zM437.433 67.492L442.433 67.492 442.433 62.492 437.433 62.492zM442.433 62.492L448.058 62.492 448.058 57.493 442.433 57.493zM432.435 57.493L442.433 57.493 442.433 51.869 432.435 51.869zM432.435 51.869L437.433 51.869 437.433 46.869 432.435 46.869zM426.811 57.493L432.435 57.493 432.435 46.869 426.811 46.869zM442.433 57.493L453.058 57.493 453.058 46.869 442.433 46.869zM432.435 46.869L448.058 46.869 448.058 41.87 432.435 41.87zM437.433 41.87L442.433 41.87 442.433 36.245 437.433 36.245zM432.435 10.624L442.433 10.624 442.433 4.999 432.435 4.999zM437.433 4.999L442.433 4.999 442.433 0 437.433 0zM442.433 10.624L448.058 10.624 448.058 4.999 442.433 4.999zM432.435 15.623L442.433 15.623 442.433 10.624 432.435 10.624zM432.435 20.622L437.433 20.622 437.433 15.623 432.435 15.623zM426.811 20.622L432.435 20.622 432.435 10.624 426.811 10.624zM442.433 20.622L453.058 20.622 453.058 10.624 442.433 10.624zM432.435 26.247L448.058 26.247 448.058 20.622 432.435 20.622zM437.433 31.246L442.433 31.246 442.433 26.247 437.433 26.247zM463.68 41.87L468.68 41.87 468.68 31.246 463.68 31.246zM468.68 36.245L473.68 36.245 473.68 31.246 468.68 31.246zM463.68 31.246L468.68 31.246 468.68 26.247 463.68 26.247zM458.056 41.87L463.68 41.87 463.68 31.246 458.056 31.246zM453.058 41.87L458.056 41.87 458.056 36.245 453.058 36.245zM453.058 46.869L463.68 46.869 463.68 41.87 453.058 41.87zM453.058 31.246L463.68 31.246 463.68 20.622 453.058 20.622zM448.058 41.87L453.058 41.87 453.058 26.247 448.058 26.247zM442.433 36.245L448.058 36.245 448.058 31.246 442.433 31.246zM411.187 41.87L416.811 41.87 416.811 31.246 411.187 31.246zM406.189 36.245L411.187 36.245 411.187 31.246 406.189 31.246zM411.187 31.246L416.811 31.246 416.811 26.247 411.187 26.247zM416.811 41.87L421.811 41.87 421.811 31.246 416.811 31.246zM421.811 41.87L426.811 41.87 426.811 36.245 421.811 36.245zM416.811 46.869L426.811 46.869 426.811 41.87 416.811 41.87zM416.811 31.246L426.811 31.246 426.811 20.622 416.811 20.622zM426.811 41.87L432.435 41.87 432.435 26.247 426.811 26.247zM432.435 36.245L437.433 36.245 437.433 31.246 432.435 31.246zM254.957 31.246L260.581 31.246 260.581 20.622 254.957 20.622zM359.319 67.492L369.942 67.492 369.942 62.492 359.319 62.492zM354.319 62.492L369.942 62.492 369.942 57.493 354.319 57.493zM354.319 57.493L364.318 57.493 364.318 51.869 354.319 51.869zM343.695 62.492L348.695 62.492 348.695 51.869 343.695 51.869zM348.695 57.493L354.319 57.493 354.319 51.869 348.695 51.869zM348.695 51.869L359.319 51.869 359.319 46.869 348.695 46.869zM364.318 57.493L369.942 57.493 369.942 46.869 364.318 46.869zM369.942 51.869L374.942 51.869 374.942 46.869 369.942 46.869zM359.319 46.869L374.942 46.869 374.942 41.87 359.319 41.87zM359.319 41.87L369.942 41.87 369.942 31.246 359.319 31.246zM354.319 41.87L359.319 41.87 359.319 36.245 354.319 36.245zM369.942 41.87L379.942 41.87 379.942 36.245 369.942 36.245zM374.942 36.245L379.942 36.245 379.942 31.246 374.942 31.246zM385.566 67.492L395.564 67.492 395.564 62.492 385.566 62.492zM385.566 62.492L401.189 62.492 401.189 57.493 385.566 57.493zM390.564 57.493L401.189 57.493 401.189 51.869 390.564 51.869zM406.189 62.492L411.187 62.492 411.187 51.869 406.189 51.869zM401.189 57.493L406.189 57.493 406.189 51.869 401.189 51.869zM395.564 51.869L406.189 51.869 406.189 46.869 395.564 46.869zM385.566 57.493L390.564 57.493 390.564 46.869 385.566 46.869zM379.942 51.869L385.566 51.869 385.566 46.869 379.942 46.869zM379.942 46.869L395.564 46.869 395.564 41.87 379.942 41.87zM385.566 41.87L395.564 41.87 395.564 31.246 385.566 31.246zM395.564 41.87L401.189 41.87 401.189 36.245 395.564 36.245zM379.942 41.87L385.566 41.87 385.566 36.245 379.942 36.245zM374.942 31.246L379.942 31.246 379.942 15.623 374.942 15.623zM369.942 26.247L374.942 26.247 374.942 20.622 369.942 20.622zM379.942 31.246L385.566 31.246 385.566 20.622 379.942 20.622zM369.942 31.246L374.942 31.246 374.942 26.247 369.942 26.247zM0 73.116L249.957 73.116 249.957 67.492 0 67.492zM249.957 73.116L499.927 73.116 499.927 67.492 249.957 67.492z" transform="matrix(-1 0 0 1 500 0)"/>
        <path fill="#000" d="M41.858 67.492L46.858 67.492 46.858 62.492 41.858 62.492zM166.843 67.492L171.842 67.492 171.842 62.492 166.843 62.492zM208.088 67.492L213.712 67.492 213.712 62.492 208.088 62.492zM83.103 67.492L88.728 67.492 88.728 62.492 83.103 62.492zM124.973 67.492L129.972 67.492 129.972 57.493 124.973 57.493zM0 67.492L4.988 67.492 4.988 57.493 0 57.493zM291.828 67.492L296.826 67.492 296.826 62.492 291.828 62.492zM416.811 67.492L421.811 67.492 421.811 62.492 416.811 62.492zM458.056 67.492L463.68 67.492 463.68 62.492 458.056 62.492zM333.073 67.492L338.697 67.492 338.697 62.492 333.073 62.492zM374.942 67.492L379.942 67.492 379.942 57.493 374.942 57.493zM249.957 67.492L254.957 67.492 254.957 57.493 249.957 57.493z" transform="matrix(-1 0 0 1 500 0)"/>
        <path fill="#DA251D" d="M4.988 62.492L10.612 62.492 10.612 57.493 4.988 57.493zM0 57.493L4.988 57.493 4.988 41.87 0 41.87zM4.988 57.493L10.612 57.493 10.612 51.869 4.988 51.869zM4.988 67.492L10.612 67.492 10.612 62.492 4.988 62.492zM129.972 62.492L135.597 62.492 135.597 57.493 129.972 57.493zM124.973 57.493L129.972 57.493 129.972 41.87 124.973 41.87zM78.104 36.245L83.103 36.245 83.103 31.246 78.104 31.246zM62.481 20.622L67.48 20.622 67.48 15.623 62.481 15.623zM46.858 36.245L51.857 36.245 51.857 31.246 46.858 31.246zM62.481 51.869L67.48 51.869 67.48 46.869 62.481 46.869zM203.088 36.245L208.088 36.245 208.088 31.246 203.088 31.246zM187.465 20.622L192.465 20.622 192.465 15.623 187.465 15.623zM171.842 36.245L176.842 36.245 176.842 31.246 171.842 31.246zM187.465 51.869L192.465 51.869 192.465 46.869 187.465 46.869zM129.972 57.493L135.597 57.493 135.597 51.869 129.972 51.869zM119.974 62.492L124.973 62.492 124.973 51.869 119.974 51.869zM129.972 67.492L135.597 67.492 135.597 62.492 129.972 62.492zM119.974 67.492L124.973 67.492 124.973 62.492 119.974 62.492zM244.959 67.492L249.957 67.492 249.957 51.869 244.959 51.869zM41.858 62.492L46.858 62.492 46.858 57.493 41.858 57.493zM36.234 67.492L41.858 67.492 41.858 62.492 36.234 62.492zM46.858 67.492L51.857 67.492 51.857 62.492 46.858 62.492zM166.843 62.492L171.842 62.492 171.842 57.493 166.843 57.493zM161.219 67.492L166.843 67.492 166.843 62.492 161.219 62.492zM171.842 67.492L176.842 67.492 176.842 62.492 171.842 62.492zM208.088 62.492L213.712 62.492 213.712 57.493 208.088 57.493zM203.088 67.492L208.088 67.492 208.088 62.492 203.088 62.492zM213.712 67.492L218.712 67.492 218.712 62.492 213.712 62.492zM83.103 62.492L88.728 62.492 88.728 57.493 83.103 57.493zM78.104 67.492L83.103 67.492 83.103 62.492 78.104 62.492zM88.728 67.492L93.727 67.492 93.727 62.492 88.728 62.492zM254.957 62.492L260.581 62.492 260.581 57.493 254.957 57.493zM249.957 57.493L254.957 57.493 254.957 41.87 249.957 41.87zM254.957 57.493L260.581 57.493 260.581 51.869 254.957 51.869zM254.957 67.492L260.581 67.492 260.581 62.492 254.957 62.492zM379.942 62.492L385.566 62.492 385.566 57.493 379.942 57.493zM374.942 57.493L379.942 57.493 379.942 41.87 374.942 41.87zM328.073 36.245L333.073 36.245 333.073 31.246 328.073 31.246zM312.45 20.622L317.448 20.622 317.448 15.623 312.45 15.623zM296.826 36.245L301.826 36.245 301.826 31.246 296.826 31.246zM312.45 51.869L317.448 51.869 317.448 46.869 312.45 46.869zM453.058 36.245L458.056 36.245 458.056 31.246 453.058 31.246zM437.433 20.622L442.433 20.622 442.433 15.623 437.433 15.623zM421.811 36.245L426.811 36.245 426.811 31.246 421.811 31.246zM437.433 51.869L442.433 51.869 442.433 46.869 437.433 46.869zM379.942 57.493L385.566 57.493 385.566 51.869 379.942 51.869zM369.942 62.492L374.942 62.492 374.942 51.869 369.942 51.869zM379.942 67.492L385.566 67.492 385.566 62.492 379.942 62.492zM369.942 67.492L374.942 67.492 374.942 62.492 369.942 62.492zM494.927 67.492L499.927 67.492 499.927 51.869 494.927 51.869zM291.828 62.492L296.826 62.492 296.826 57.493 291.828 57.493zM286.204 67.492L291.828 67.492 291.828 62.492 286.204 62.492zM296.826 67.492L301.826 67.492 301.826 62.492 296.826 62.492zM416.811 62.492L421.811 62.492 421.811 57.493 416.811 57.493zM411.187 67.492L416.811 67.492 416.811 62.492 411.187 62.492zM421.811 67.492L426.811 67.492 426.811 62.492 421.811 62.492zM458.056 62.492L463.68 62.492 463.68 57.493 458.056 57.493zM453.058 67.492L458.056 67.492 458.056 62.492 453.058 62.492zM463.68 67.492L468.68 67.492 468.68 62.492 463.68 62.492zM333.073 62.492L338.697 62.492 338.697 57.493 333.073 57.493zM328.073 67.492L333.073 67.492 333.073 62.492 328.073 62.492zM338.697 67.492L343.695 67.492 343.695 62.492 338.697 62.492z" transform="matrix(-1 0 0 1 500 0)"/>
    </g>
</svg>
