<svg xmlns="http://www.w3.org/2000/svg" width="109" height="108" viewBox="0 0 109 108">
    <g fill="none" fill-rule="evenodd">
        <path fill="#DA251D" d="M64 108v10H54v-10h10zM54 98v10H44V98h10zm20 0v10H64V98h10zM64 20v10h14v10h10v11h10v10H88v17H78v10H64v10H54V88H40V78H30V61H20V51h10V40h10V30h14V20h10zm44 41v10H98V61h10zm-88 0v10H10V61h10zM10 51v10H0V51h10zm108 0v10h-10V51h10zm-10-10v10H98V41h10zm-88 0v10H10V41h10zm34-31v10H44V10h10zm20 0v10H64V10h10zM64 0v10H54V0h10z" transform="rotate(-30 48.17 62.098)"/>
        <text fill="#FFF" font-family="Oswald-Regular_Bold, Oswald" font-size="13" font-weight="bold" letter-spacing=".464" transform="rotate(-30 48.17 62.098)">
            <tspan x="31" y="63">НОВИНКА</tspan>
        </text>
    </g>
</svg>
