<svg xmlns="http://www.w3.org/2000/svg" width="20" height="18" viewBox="0 0 20 18">
    <path d="M14.178.007c-1.37.07-2.672.657-3.647 1.655L10 2.205l-.53-.543c-2.167-2.215-5.679-2.215-7.845 0-2.165 2.216-2.165 5.808 0 8.024l7.954 8.135c.233.239.61.239.844 0l7.953-8.135C19.415 8.622 20 7.179 20 5.674c0-1.505-.585-2.948-1.625-4.012C17.335.598 15.925 0 14.453 0l-.275.007zm.275 1.214c1.155 0 2.262.47 3.078 1.305.816.835 1.275 1.967 1.275 3.148 0 1.18-.459 2.313-1.275 3.148l-7.532 7.704-7.53-7.704c-1.7-1.739-1.7-4.558 0-6.296 1.7-1.739 4.455-1.739 6.155 0l.954.975c.233.239.61.239.844 0l.954-.975c.816-.836 1.923-1.305 3.077-1.305z"/>
</svg>
