<svg xmlns="http://www.w3.org/2000/svg" width="24" height="24" viewBox="0 0 24 24">
    <path fill="#1E1B15" d="M20.484 0C22.423 0 24 1.577 24 3.516v16.968C24 22.423 22.423 24 20.484 24H3.516C1.577 24 0 22.423 0 20.484V3.516C0 1.577 1.577 0 3.516 0zm0 1.406H3.516c-1.163 0-2.11.947-2.11 2.11v16.968c0 1.163.947 2.11 2.11 2.11h16.968c1.163 0 2.11-.947 2.11-2.11V3.516c0-1.163-.947-2.11-2.11-2.11zM12 5.672c3.49 0 6.328 2.839 6.328 6.328 0 3.49-2.839 6.328-6.328 6.328-3.49 0-6.328-2.839-6.328-6.328 0-3.49 2.839-6.328 6.328-6.328zm0 1.406c-2.714 0-4.922 2.208-4.922 4.922 0 2.714 2.208 4.922 4.922 4.922 2.714 0 4.922-2.208 4.922-4.922 0-2.714-2.208-4.922-4.922-4.922zm7.031-4.219c1.163 0 2.11.947 2.11 2.11 0 1.163-.947 2.11-2.11 2.11-1.163 0-2.11-.947-2.11-2.11 0-1.163.947-2.11 2.11-2.11zm0 1.407c-.387 0-.703.315-.703.703 0 .387.316.703.703.703.388 0 .703-.316.703-.703 0-.388-.315-.703-.703-.703z"/>
</svg>
