<svg xmlns="http://www.w3.org/2000/svg" width="20" height="22" viewBox="0 0 20 22">
    <path fill="#DA251D" d="M11.6 0c1.38 0 2.51 1.076 2.595 2.436l.005.164V4h4.4c.331 0 .6.269.6.6 0 .298-.218.546-.503.592L18.6 5.2h-1.4v13.4c0 1.38-1.076 2.51-2.436 2.595l-.164.005h-10c-1.38 0-2.51-1.076-2.595-2.436L2 18.6V5.2H.6c-.331 0-.6-.269-.6-.6 0-.298.218-.546.503-.592L.6 4H5V2.6C5 1.22 6.076.09 7.436.005L7.6 0h4zM3.2 5.2v13.4c0 .728.555 1.326 1.265 1.394L4.6 20h10c.728 0 1.326-.555 1.394-1.265L16 18.6V5.2H3.2zm8.4-4h-4c-.728 0-1.326.555-1.394 1.265L6.2 2.6V4H13V2.6c0-.728-.555-1.326-1.265-1.394L11.6 1.2z"/>
</svg>
